<svg xmlns="http://www.w3.org/2000/svg" viewBox="0 0 200 200" width="512" height="512"><title>Geyik</title><defs><clipPath id="c-geyik"><circle cx="100" cy="100" r="100"/></clipPath><filter id="g-geyik" x="-50%" y="-50%" width="200%" height="200%"><feGaussianBlur stdDeviation="2.6" result="b"/><feMerge><feMergeNode in="b"/><feMergeNode in="SourceGraphic"/></feMerge></filter><radialGradient id="bg-geyik" cx="50%" cy="38%" r="72%"><stop offset="0" stop-color="#3A2230"/><stop offset="1" stop-color="#120A0F"/></radialGradient><linearGradient id="ring-geyik" x1="0" y1="0" x2="1" y2="1"><stop offset="0" stop-color="#FFD9A0"/><stop offset="1" stop-color="#FF8FA8"/></linearGradient></defs><g clip-path="url(#c-geyik)"><rect width="200" height="200" fill="url(#bg-geyik)"/><circle cx="30" cy="50" r="1.4" fill="#FFE3B0" opacity="0.8"/><circle cx="46" cy="30" r="1" fill="#FFE3B0" opacity="0.6"/><circle cx="164" cy="34" r="1.2" fill="#FFE3B0" opacity="0.7"/><circle cx="176" cy="70" r="1" fill="#FFE3B0" opacity="0.5"/><circle cx="24" cy="92" r="1" fill="#FFE3B0" opacity="0.5"/><circle cx="150" cy="22" r="0.8" fill="#FFE3B0" opacity="0.6"/><circle cx="60" cy="20" r="0.8" fill="#FFE3B0" opacity="0.5"/><circle cx="182" cy="120" r="0.9" fill="#FFE3B0" opacity="0.5"/><circle cx="20" cy="130" r="0.8" fill="#FFE3B0" opacity="0.4"/><circle cx="34" cy="120" r="2.2" fill="#FFD27A" filter="url(#g-geyik)" opacity=".9"/><circle cx="168" cy="98" r="2.2" fill="#FFD27A" filter="url(#g-geyik)" opacity=".9"/><circle cx="150" cy="150" r="2.2" fill="#FFD27A" filter="url(#g-geyik)" opacity=".9"/><circle cx="42" cy="70" r="2.2" fill="#FFD27A" filter="url(#g-geyik)" opacity=".9"/><circle cx="176" cy="140" r="2.2" fill="#FFD27A" filter="url(#g-geyik)" opacity=".9"/><path d="M84 62 L72 40 L58 28 M72 40 L58 44 M77 50 L88 30 M65 34 L66 20" stroke="#FFD9A0" stroke-width="3.6" fill="none" stroke-linecap="round" stroke-linejoin="round" filter="url(#g-geyik)"/><path d="M72 76 L40 66 L54 88 Z" fill="#BE8460"/><path d="M68 76 L48 70 L57 84 Z" fill="#F2A7B5" opacity="0.7"/><path d="M116 62 L128 40 L142 28 M128 40 L142 44 M123 50 L112 30 M135 34 L134 20" stroke="#FFD9A0" stroke-width="3.6" fill="none" stroke-linecap="round" stroke-linejoin="round" filter="url(#g-geyik)"/><path d="M128 76 L160 66 L146 88 Z" fill="#7A4A32"/><path d="M132 76 L152 70 L143 84 Z" fill="#F2A7B5" opacity="0.7"/><path d="M72 76 L86 62 L100 60 L114 62 L128 76 L134 102 L122 128 L112 160 L100 168 L88 160 L78 128 L66 102 Z" fill="#9C6444"/><path d="M86 62 L100 60 L114 62 L100 90 Z" fill="#DCA67E"/><path d="M72 76 L86 62 L100 90 L78 100 Z" fill="#BE8460"/><path d="M128 76 L114 62 L100 90 L122 100 Z" fill="#7A4A32"/><path d="M66 102 L72 76 L78 100 L78 128 Z" fill="#9C6444"/><path d="M134 102 L128 76 L122 100 L122 128 Z" fill="#5A3424"/><path d="M78 100 L100 90 L122 100 L112 160 L100 168 L88 160 Z" fill="#E2B999"/><path d="M78 100 L100 90 L100 168 L88 160 Z" fill="#F3D6C0"/><path d="M78 128 L78 100 L88 160 Z" fill="#BE8460" opacity="0.5"/><ellipse cx="85" cy="104" rx="7" ry="8" fill="#1A0D08" stroke="#FFD9A0" stroke-width="1.3" filter="url(#g-geyik)"/><circle cx="82.6" cy="101" r="2.4" fill="#fff"/><circle cx="87" cy="107" r="1.1" fill="#fff"/><ellipse cx="115" cy="104" rx="7" ry="8" fill="#1A0D08" stroke="#FFD9A0" stroke-width="1.3" filter="url(#g-geyik)"/><circle cx="112.6" cy="101" r="2.4" fill="#fff"/><circle cx="117" cy="107" r="1.1" fill="#fff"/><path d="M92 150 L108 150 L100 160 Z" fill="#24130C"/><path d="M94 151 L99 151 L96.5 154 Z" fill="#fff" opacity=".35"/><circle cx="90" cy="72" r="2" fill="#F7E3CF" opacity=".75"/><circle cx="110" cy="72" r="2" fill="#F7E3CF" opacity=".75"/><circle cx="100" cy="80" r="2" fill="#F7E3CF" opacity=".75"/><circle cx="82" cy="84" r="2" fill="#F7E3CF" opacity=".75"/><circle cx="118" cy="84" r="2" fill="#F7E3CF" opacity=".75"/></g><circle cx="100" cy="100" r="96" fill="none" stroke="url(#ring-geyik)" stroke-width="4" filter="url(#g-geyik)"/></svg>