<svg xmlns="http://www.w3.org/2000/svg" viewBox="0 0 200 200" width="512" height="512"><title>Kar Leoparı</title><defs><clipPath id="c-kar-leoparı"><circle cx="100" cy="100" r="100"/></clipPath><filter id="g-kar-leoparı" x="-50%" y="-50%" width="200%" height="200%"><feGaussianBlur stdDeviation="2.6" result="b"/><feMerge><feMergeNode in="b"/><feMergeNode in="SourceGraphic"/></feMerge></filter><radialGradient id="bg-kar-leoparı" cx="50%" cy="38%" r="72%"><stop offset="0" stop-color="#18304F"/><stop offset="1" stop-color="#060C16"/></radialGradient><linearGradient id="ring-kar-leoparı" x1="0" y1="0" x2="1" y2="1"><stop offset="0" stop-color="#8FFFE0"/><stop offset="1" stop-color="#E6F4FF"/></linearGradient></defs><g clip-path="url(#c-kar-leoparı)"><rect width="200" height="200" fill="url(#bg-kar-leoparı)"/><circle cx="30" cy="50" r="1.4" fill="#E6F4FF" opacity="0.8"/><circle cx="46" cy="30" r="1" fill="#E6F4FF" opacity="0.6"/><circle cx="164" cy="34" r="1.2" fill="#E6F4FF" opacity="0.7"/><circle cx="176" cy="70" r="1" fill="#E6F4FF" opacity="0.5"/><circle cx="24" cy="92" r="1" fill="#E6F4FF" opacity="0.5"/><circle cx="150" cy="22" r="0.8" fill="#E6F4FF" opacity="0.6"/><circle cx="60" cy="20" r="0.8" fill="#E6F4FF" opacity="0.5"/><circle cx="182" cy="120" r="0.9" fill="#E6F4FF" opacity="0.5"/><circle cx="20" cy="130" r="0.8" fill="#E6F4FF" opacity="0.4"/><circle cx="36" cy="140" r="1.8" fill="#fff" opacity="0.6"/><circle cx="166" cy="150" r="1.5" fill="#fff" opacity="0.5"/><circle cx="152" cy="64" r="1.2" fill="#fff" opacity="0.5"/><circle cx="24" cy="64" r="1.4" fill="#fff" opacity="0.5"/><circle cx="178" cy="100" r="1.6" fill="#fff" opacity="0.5"/><path d="M0 176 L36 150 L60 164 L92 140 L126 168 L156 146 L200 172 L200 200 L0 200 Z" fill="#16283F" opacity=".9"/><path d="M36 150 L44 156 L52 154 L60 164 M92 140 L100 148 L108 146 M156 146 L164 152 L172 150" stroke="#E6F4FF" stroke-width="2" fill="none" opacity=".5"/><path d="M52 72 L60 46 L82 56 Z" fill="#C9CFDA"/><path d="M148 72 L140 46 L118 56 Z" fill="#B7BECB"/><path d="M58 64 L62 52 L74 58 Z" fill="#2D3340"/><path d="M142 64 L138 52 L126 58 Z" fill="#2D3340"/><path d="M52 74 L78 56 L100 52 L122 56 L148 74 L158 104 L148 136 L122 158 L100 164 L78 158 L52 136 L42 104 Z" fill="#D8DDE6"/><path d="M78 56 L100 52 L122 56 L100 86 Z" fill="#F1F4F8"/><path d="M52 74 L78 56 L100 86 L68 98 Z" fill="#E6EAF0"/><path d="M148 74 L122 56 L100 86 L132 98 Z" fill="#C6CDD8"/><path d="M42 104 L52 74 L68 98 L64 136 Z" fill="#DEE2EA"/><path d="M158 104 L148 74 L132 98 L136 136 Z" fill="#BBC3CF"/><path d="M64 136 L68 98 L100 112 L132 98 L136 136 L122 158 L100 164 L78 158 Z" fill="#F3F5F9"/><path d="M100 112 L132 98 L136 136 L122 158 L100 164 Z" fill="#DCE1E9"/><circle cx="100" cy="66" r="4" fill="none" stroke="#2D3340" stroke-width="2.2" stroke-dasharray="6.4 3.6"/><circle cx="88" cy="74" r="3" fill="none" stroke="#2D3340" stroke-width="2.2" stroke-dasharray="4.800000000000001 2.7"/><circle cx="112" cy="74" r="3" fill="none" stroke="#2D3340" stroke-width="2.2" stroke-dasharray="4.800000000000001 2.7"/><circle cx="60" cy="100" r="4" fill="none" stroke="#2D3340" stroke-width="2.2" stroke-dasharray="6.4 3.6"/><circle cx="140" cy="100" r="4" fill="none" stroke="#2D3340" stroke-width="2.2" stroke-dasharray="6.4 3.6"/><circle cx="56" cy="120" r="3" fill="none" stroke="#2D3340" stroke-width="2.2" stroke-dasharray="4.800000000000001 2.7"/><circle cx="144" cy="120" r="3" fill="none" stroke="#2D3340" stroke-width="2.2" stroke-dasharray="4.800000000000001 2.7"/><circle cx="72" cy="80" r="2.6" fill="none" stroke="#2D3340" stroke-width="2.2" stroke-dasharray="4.16 2.3400000000000003"/><circle cx="128" cy="80" r="2.6" fill="none" stroke="#2D3340" stroke-width="2.2" stroke-dasharray="4.16 2.3400000000000003"/><path d="M68 100 Q79.0 89 90 102 Q79.0 108 68 100 Z" fill="#8FFFE0" filter="url(#g-kar-leoparı)"/><ellipse cx="79.0" cy="100" rx="2.6" ry="5" fill="#0B1A1A"/><circle cx="82.0" cy="97.5" r="1.4" fill="#fff"/><path d="M89.5 105 L87.5 111" stroke="#2D3340" stroke-width="2" stroke-linecap="round" opacity=".8"/><path d="M132 100 Q121.0 89 110 102 Q121.0 108 132 100 Z" fill="#8FFFE0" filter="url(#g-kar-leoparı)"/><ellipse cx="121.0" cy="100" rx="2.6" ry="5" fill="#0B1A1A"/><circle cx="118.0" cy="97.5" r="1.4" fill="#fff"/><path d="M110.5 105 L112.5 111" stroke="#2D3340" stroke-width="2" stroke-linecap="round" opacity=".8"/><path d="M92 126 L108 126 L100 134 Z" fill="#B67A84"/><path d="M100 134 L100 139 M100 139 Q95 144 90 141 M100 139 Q105 144 110 141" stroke="#2D3340" stroke-width="2" fill="none" stroke-linecap="round"/></g><circle cx="100" cy="100" r="96" fill="none" stroke="url(#ring-kar-leoparı)" stroke-width="4" filter="url(#g-kar-leoparı)"/></svg>