<svg xmlns="http://www.w3.org/2000/svg" viewBox="0 0 200 200" width="512" height="512"><title>Kızıl Panda</title><defs><clipPath id="c-kizil-panda"><circle cx="100" cy="100" r="100"/></clipPath><filter id="g-kizil-panda" x="-50%" y="-50%" width="200%" height="200%"><feGaussianBlur stdDeviation="2.6" result="b"/><feMerge><feMergeNode in="b"/><feMergeNode in="SourceGraphic"/></feMerge></filter><radialGradient id="bg-kizil-panda" cx="50%" cy="38%" r="72%"><stop offset="0" stop-color="#123326"/><stop offset="1" stop-color="#050E0A"/></radialGradient><linearGradient id="ring-kizil-panda" x1="0" y1="0" x2="1" y2="1"><stop offset="0" stop-color="#F29B5C"/><stop offset="1" stop-color="#FFD24D"/></linearGradient></defs><g clip-path="url(#c-kizil-panda)"><rect width="200" height="200" fill="url(#bg-kizil-panda)"/><circle cx="30" cy="50" r="1.4" fill="#FFE3C7" opacity="0.8"/><circle cx="46" cy="30" r="1" fill="#FFE3C7" opacity="0.6"/><circle cx="164" cy="34" r="1.2" fill="#FFE3C7" opacity="0.7"/><circle cx="176" cy="70" r="1" fill="#FFE3C7" opacity="0.5"/><circle cx="24" cy="92" r="1" fill="#FFE3C7" opacity="0.5"/><circle cx="150" cy="22" r="0.8" fill="#FFE3C7" opacity="0.6"/><circle cx="60" cy="20" r="0.8" fill="#FFE3C7" opacity="0.5"/><circle cx="182" cy="120" r="0.9" fill="#FFE3C7" opacity="0.5"/><circle cx="20" cy="130" r="0.8" fill="#FFE3C7" opacity="0.4"/><ellipse cx="26" cy="150" rx="6" ry="3" fill="#3FA982" opacity=".5" transform="rotate(30 26 150)"/><ellipse cx="40" cy="164" rx="6" ry="3" fill="#3FA982" opacity=".5" transform="rotate(-20 40 164)"/><ellipse cx="172" cy="150" rx="6" ry="3" fill="#3FA982" opacity=".5" transform="rotate(-30 172 150)"/><ellipse cx="160" cy="166" rx="6" ry="3" fill="#3FA982" opacity=".5" transform="rotate(25 160 166)"/><ellipse cx="180" cy="92" rx="6" ry="3" fill="#3FA982" opacity=".5" transform="rotate(10 180 92)"/><path d="M48 72 L56 40 L86 56 Z" fill="#FFF4EA"/><path d="M53 68 L59 47 L80 57 Z" fill="#2A140C"/><path d="M152 72 L144 40 L114 56 Z" fill="#FFF4EA"/><path d="M147 68 L141 47 L120 57 Z" fill="#2A140C"/><path d="M50 72 L80 56 L100 54 L120 56 L150 72 L160 104 L148 134 L124 154 L100 160 L76 154 L52 134 L40 104 Z" fill="#C85A2B"/><path d="M80 56 L100 54 L120 56 L100 84 Z" fill="#F29B5C"/><path d="M50 72 L80 56 L100 84 L66 92 Z" fill="#E0773A"/><path d="M150 72 L120 56 L100 84 L134 92 Z" fill="#A4441F"/><path d="M40 104 L50 72 L66 92 L52 134 Z" fill="#E0773A"/><path d="M160 104 L150 72 L134 92 L148 134 Z" fill="#7E3219"/><path d="M66 82 L84 78 L90 88 L72 92 Z" fill="#FFF4EA"/><path d="M134 82 L116 78 L110 88 L128 92 Z" fill="#EED9C8"/><path d="M66 112 L100 104 L134 112 L124 142 L100 152 L76 142 Z" fill="#FFF4EA"/><path d="M100 104 L134 112 L124 142 L100 152 Z" fill="#EED9C8"/><path d="M40 104 L52 134 L66 112 Z" fill="#FFF4EA" opacity="0.9"/><path d="M160 104 L148 134 L134 112 Z" fill="#EED9C8" opacity="0.9"/><path d="M80 104 L74 126" stroke="#7E3219" stroke-width="5" stroke-linecap="round"/><circle cx="82" cy="98" r="6.5" fill="#FFD24D" filter="url(#g-kizil-panda)"/><circle cx="82" cy="98.5" r="3.6" fill="#2A140C"/><circle cx="80" cy="96" r="1.6" fill="#fff"/><path d="M120 104 L126 126" stroke="#7E3219" stroke-width="5" stroke-linecap="round"/><circle cx="118" cy="98" r="6.5" fill="#FFD24D" filter="url(#g-kizil-panda)"/><circle cx="118" cy="98.5" r="3.6" fill="#2A140C"/><circle cx="116" cy="96" r="1.6" fill="#fff"/><path d="M92 118 L108 118 L100 127 Z" fill="#2A140C"/><path d="M100 127 Q95 133 90 130 M100 127 Q105 133 110 130" stroke="#2A140C" stroke-width="2" fill="none" stroke-linecap="round"/></g><circle cx="100" cy="100" r="96" fill="none" stroke="url(#ring-kizil-panda)" stroke-width="4" filter="url(#g-kizil-panda)"/></svg>